<svg width="69" height="68" viewBox="0 0 69 68" fill="none" xmlns="http://www.w3.org/2000/svg">
<path d="M34.0637 43.3333L45.4182 63H22.7091L34.0637 43.3333Z" fill="#86C600"/>
<path d="M34.0637 43.3333H56.7728L45.4183 63L34.0637 43.3333Z" fill="#1F9900"/>
<path d="M56.7728 43.3333L68.1273 63H45.4182L56.7728 43.3333Z" fill="#1E7200"/>
<path d="M11.3545 43.3333H34.0637L22.7091 63L11.3545 43.3333Z" fill="#1F9900"/>
<path d="M11.3545 43.3333L22.7091 63H0L11.3545 43.3333Z" fill="#144D00"/>
<path d="M22.709 23.6667L34.0637 43.3333H11.3545L22.709 23.6667Z" fill="#487500"/>
<path d="M45.4182 23.6667L56.7728 43.3333H34.0637L45.4182 23.6667Z" fill="#E0E400"/>
<path d="M22.709 23.6667H45.4181L34.0636 43.3333L22.709 23.6667Z" fill="#3EC000"/>
<path d="M34.0635 4L45.4181 23.6667H22.709L34.0635 4Z" fill="#B5E200"/>
</svg>